# xmcd
# 
# Track frame offsets:
#     150
#     24325
#     44440
#     61785
#     84848
#     105897
#     124895
#     148302
#     170032
#     188473
#     207726
#     229966
#     254250
#     272446
#     287658
#     306063
#     322517
# 
# Disc length: 4503
# 
# Revision: 2
# Processed by: cddbd v1.5.2PL0 Copyright (c) Steve Scherf et al.
# Submitted via: fre:ac v1.0.31
# 
DISCID=e4119511
DTITLE=Various Artist - Die Ultimative Chart Show - Die erfolgreichsten Singles  - CD2
DYEAR=2013
DGENRE=Pop
TTITLE0=Peter Maffay - So bist du (2010)
TTITLE1=Silbermond - Das Beste
TTITLE2=Unheilig - Geboren um zu leben
TTITLE3=Israel Kamakawiwo'ole - Over The Rainbow - What A Wonderful World
TTITLE4=Céline Dion - My Heart Will Go On
TTITLE5=ABBA - Fernando
TTITLE6=Scorpions - Wind Of Change
TTITLE7=Vangelis - Conquest Of Paradise
TTITLE8=Sarah Brightman - Time To Say Goodbye
TTITLE9=Enigma - Sadeness Part 1
TTITLE10=4 Non Blondes - What's Up?
TTITLE11=Meat Loaf - I'd Do Anything For Love (But I Won't Do That)
TTITLE12=Coolio ft. L.V. - Gangsta's Paradise
TTITLE13=Kaoma - Lambada
TTITLE14=Udo Jürgens - Grichischer Wein
TTITLE15=Matthias Reim - Verdammt, ich lieb Dich
TTITLE16=DJ Ötzi ft. Nik P. - Ein Stern (der deinen Namen trägt)
EXTD=
EXTT0=
EXTT1=
EXTT2=
EXTT3=
EXTT4=
EXTT5=
EXTT6=
EXTT7=
EXTT8=
EXTT9=
EXTT10=
EXTT11=
EXTT12=
EXTT13=
EXTT14=
EXTT15=
EXTT16=
PLAYORDER=
